<svg xmlns="http://www.w3.org/2000/svg" width="16" height="16" viewBox="0 0 16 16"><path d="M8 4.5a3.5 3.5 0 1 0 0 7 3.5 3.5 0 0 0 0-7zM6 8a2 2 0 1 1 4 0 2 2 0 0 1-4 0zm8.5-1.5a.5.5 0 0 0-.5-.5h-1.1a5.5 5.5 0 0 0-.44-1.06l.78-.78a.5.5 0 0 0 0-.71l-.7-.7a.5.5 0 0 0-.71 0l-.78.78A5.5 5.5 0 0 0 9.5 3.1V2a.5.5 0 0 0-.5-.5H8a.5.5 0 0 0-.5.5v1.1a5.5 5.5 0 0 0-1.06.44l-.78-.78a.5.5 0 0 0-.71 0l-.7.7a.5.5 0 0 0 0 .71l.78.78A5.5 5.5 0 0 0 4.6 6H3.5a.5.5 0 0 0-.5.5v1a.5.5 0 0 0 .5.5h1.1a5.5 5.5 0 0 0 .44 1.06l-.78.78a.5.5 0 0 0 0 .71l.7.7a.5.5 0 0 0 .71 0l.78-.78a5.5 5.5 0 0 0 1.06.44V13a.5.5 0 0 0 .5.5h1a.5.5 0 0 0 .5-.5v-1.1a5.5 5.5 0 0 0 1.06-.44l.78.78a.5.5 0 0 0 .71 0l.7-.7a.5.5 0 0 0 0-.71l-.78-.78a5.5 5.5 0 0 0 .44-1.06H14a.5.5 0 0 0 .5-.5z" fill="#8E77FF"/></svg>
